<svg width="133" height="88" viewBox="0 0 133 88" fill="none" xmlns="http://www.w3.org/2000/svg">
<path d="M33.0765 52.8796C36.6761 50.5935 39.0674 46.5804 39.0674 42.0009C39.0674 34.8767 33.2921 29.103 26.1696 29.103C19.0454 29.103 13.2701 34.8767 13.2701 42.0009C13.2701 46.5804 15.665 50.5935 19.261 52.8796C8.55851 55.8895 0.708984 65.7169 0.708984 77.3819C0.708984 91.4435 51.6269 91.4435 51.6269 77.3819C51.6269 65.7169 43.779 55.8911 33.0765 52.8796Z" fill="#828282"/>
<path d="M131.057 51.0122L106.435 26.3907V10.1521C106.435 8.12966 104.796 6.48663 102.768 6.48663C100.744 6.48663 99.1041 8.12966 99.1041 10.1521V19.0618L81.7335 1.69481C80.3044 0.263757 77.9842 0.263757 76.5571 1.69481L51.8877 26.3642C53.994 27.6901 55.6904 29.5913 56.7614 31.8525L79.1482 9.46407L125.882 56.1959C126.593 56.9088 127.534 57.2705 128.47 57.2705C129.403 57.2705 130.346 56.914 131.059 56.1959C132.488 54.7599 132.488 52.4413 131.057 51.0122Z" fill="#828282"/>
<path d="M120.579 55.216L81.7408 16.3783C81.0511 15.6887 80.1227 15.3021 79.1516 15.3021C78.1805 15.3021 77.2504 15.6887 76.5624 16.3783L57.8109 35.1282C57.9445 35.8732 58.0265 36.6392 58.0265 37.4215C58.0265 39.0983 57.7093 40.7269 57.114 42.231C62.3727 46.0551 65.6889 52.2583 65.6889 59.0135C65.6889 61.3691 64.6287 66.692 55.7062 69.2599C56.426 71.8668 56.8146 74.5917 56.8146 77.384C56.8146 81.2473 54.9845 84.2749 52.0264 86.6076H64.3574C66.8113 86.6076 69.1794 85.5703 70.8545 83.7563C72.3763 82.1133 73.2138 79.9804 73.2138 77.7493V63.8286C73.2138 60.4502 75.803 57.629 79.1477 57.3102C82.4924 57.6293 85.0816 60.4518 85.0816 63.8286V77.7493C85.0816 79.9804 85.9209 82.1133 87.4391 83.7563C89.1107 85.5703 91.4787 86.6076 93.9362 86.6076H112.894C117.773 86.6076 121.749 82.6355 121.749 77.7493V58.7911C121.749 58.2367 121.697 57.6739 121.585 57.1143C121.446 56.3922 121.097 55.7347 120.579 55.216Z" fill="#828282"/>
<path d="M38.0312 51.9656C43.8387 54.6796 48.4716 59.3161 51.2731 64.9437C56.4463 64.0811 60.5 62.1068 60.5 59.0134C60.5 51.8961 55.7101 45.9 49.1793 44.061C51.3747 42.6621 52.8375 40.2154 52.8375 37.4198C52.8375 33.0735 49.311 29.5506 44.9667 29.5506C42.349 29.5506 40.0379 30.8319 38.6069 32.7937C40.5189 35.3721 41.6646 38.5494 41.6646 41.9957C41.663 45.7109 40.3531 49.2126 38.0312 51.9656Z" fill="#828282"/>
</svg>
