<svg width="34" height="34" viewBox="0 0 34 34" fill="none" xmlns="http://www.w3.org/2000/svg">
<path fill-rule="evenodd" clip-rule="evenodd" d="M25.5007 22.3125V15.2292C25.5007 10.88 23.1916 7.23917 19.1257 6.27583V5.3125C19.1257 4.13667 18.1766 3.1875 17.0007 3.1875C15.8249 3.1875 14.8757 4.13667 14.8757 5.3125V6.27583C10.8241 7.23917 8.50073 10.8658 8.50073 15.2292V22.3125L5.6674 25.1458V26.5625H28.3341V25.1458L25.5007 22.3125ZM17.0007 30.8125C18.5591 30.8125 19.8341 29.5375 19.8341 27.9792H14.1674C14.1674 29.5375 15.4424 30.8125 17.0007 30.8125ZM11.3341 23.7292H22.6674V15.2292C22.6674 11.7158 20.5282 8.85417 17.0007 8.85417C13.4732 8.85417 11.3341 11.7158 11.3341 15.2292V23.7292ZM10.7395 5.42587L8.71362 3.40003C5.31362 5.99253 3.07529 9.98753 2.87695 14.5209H5.71029C5.92279 10.7667 7.84945 7.48003 10.7395 5.42587ZM31.1258 14.5209H28.2925C28.08 10.7667 26.1392 7.48003 23.2775 5.42587L25.2892 3.40003C28.675 5.99253 30.9133 9.98753 31.1258 14.5209Z" fill="#033C59"/>
</svg>
