<svg width="34" height="34" viewBox="0 0 34 34" fill="none" xmlns="http://www.w3.org/2000/svg">
<path fill-rule="evenodd" clip-rule="evenodd" d="M25.5002 15.2292V22.3125L28.3335 25.1458V26.5625H5.66683V25.1458L8.50016 22.3125V15.2292C8.50016 10.8658 10.8235 7.23917 14.8752 6.27583V5.3125C14.8752 4.13667 15.8243 3.1875 17.0002 3.1875C18.176 3.1875 19.1252 4.13667 19.1252 5.3125V6.27583C23.191 7.23917 25.5002 10.88 25.5002 15.2292ZM19.8335 27.9792C19.8335 29.5375 18.5585 30.8125 17.0002 30.8125C15.4418 30.8125 14.1668 29.5375 14.1668 27.9792H19.8335ZM10.7375 5.42582L8.71167 3.39999C5.31167 5.99249 3.07333 9.98749 2.875 14.5208H5.70833C5.92083 10.7667 7.8475 7.47999 10.7375 5.42582ZM31.1239 14.5208H28.2906C28.0781 10.7667 26.1372 7.47999 23.2756 5.42582L25.2872 3.39999C28.673 5.99249 30.9114 9.98749 31.1239 14.5208Z" fill="#033C59"/>
</svg>
