<svg width="80" height="80" viewBox="0 0 80 80" fill="none" xmlns="http://www.w3.org/2000/svg">
<g clip-path="url(#clip0)">
<path d="M52.2095 5.58734H46.8272C45.8062 2.70292 43.0507 0.631287 39.8193 0.631287C36.588 0.631287 33.8324 2.70292 32.8065 5.58734H27.4292C26.0613 5.58734 24.9512 6.69749 24.9512 8.06536V17.9775C24.9512 19.3453 26.0613 20.4555 27.4292 20.4555H52.2095C53.5773 20.4555 54.6875 19.3453 54.6875 17.9775V8.06536C54.6875 6.69749 53.5773 5.58734 52.2095 5.58734Z" fill="#828282"/>
<path d="M64.5996 10.5434H59.6435V17.9775C59.6435 22.0761 56.3081 25.4116 52.2095 25.4116H27.4292C23.3305 25.4116 19.9951 22.0761 19.9951 17.9775V10.5434H15.0391C12.3083 10.5434 10.083 12.7687 10.083 15.4994V74.9721C10.083 77.7524 12.2587 79.9281 15.0391 79.9281H64.5996C67.3799 79.9281 69.5556 77.7524 69.5556 74.9721V15.4994C69.5556 12.7191 67.3799 10.5434 64.5996 10.5434ZM39.0957 54.4243L29.1836 64.3364C28.6979 64.8171 28.0636 65.06 27.4292 65.06C26.7948 65.06 26.1604 64.8171 25.6747 64.3364L20.7187 59.3803C19.7523 58.4139 19.7523 56.8428 20.7187 55.8764C21.6851 54.91 23.2562 54.91 24.2226 55.8764L27.4292 59.078L35.5869 50.9204C36.5533 49.9539 38.1244 49.9539 39.0908 50.9204C40.0572 51.8868 40.0622 53.4529 39.0957 54.4243ZM39.0957 34.6001L29.1836 44.5122C28.6979 44.9929 28.0636 45.2358 27.4292 45.2358C26.7948 45.2358 26.1604 44.9929 25.6747 44.5122L20.7187 39.5561C19.7523 38.5897 19.7523 37.0186 20.7187 36.0522C21.6851 35.0858 23.2562 35.0858 24.2226 36.0522L27.4292 39.2538L35.5869 31.0961C36.5533 30.1297 38.1244 30.1297 39.0908 31.0961C40.0572 32.0626 40.0622 33.6287 39.0957 34.6001ZM57.1655 60.1039H47.2534C45.8855 60.1039 44.7754 58.9938 44.7754 57.6259C44.7754 56.258 45.8855 55.1479 47.2534 55.1479H57.1655C58.5334 55.1479 59.6435 56.258 59.6435 57.6259C59.6435 58.9938 58.5334 60.1039 57.1655 60.1039ZM57.1655 40.2797H47.2534C45.8855 40.2797 44.7754 39.1696 44.7754 37.8017C44.7754 36.4338 45.8855 35.3237 47.2534 35.3237H57.1655C58.5334 35.3237 59.6435 36.4338 59.6435 37.8017C59.6435 39.1696 58.5334 40.2797 57.1655 40.2797Z" fill="#828282"/>
</g>
<defs>
<clipPath id="clip0">
<rect width="79.2968" height="79.2968" fill="white" transform="translate(0.168945 0.631287)"/>
</clipPath>
</defs>
</svg>
