<svg width="61" height="85" viewBox="0 0 61 85" fill="none" xmlns="http://www.w3.org/2000/svg">
<path d="M1.87988 77.0417C1.87988 78.3994 2.98059 79.5001 4.33828 79.5001H9.51124V81.802C9.51124 83.1597 10.6119 84.2604 11.9696 84.2604C13.3273 84.2604 14.428 83.1597 14.428 81.802V79.5001H47.2066V81.802C47.2066 83.1597 48.3073 84.2604 49.665 84.2604C51.0227 84.2604 52.1234 83.1597 52.1234 81.802V79.5001H57.2966C58.6542 79.5001 59.7549 78.3994 59.7549 77.0417V63.2698H1.87988V77.0417ZM30.8075 68.644H30.8206C32.1783 68.644 33.279 69.7447 33.279 71.1024C33.279 72.4601 32.1783 73.5608 30.8206 73.5608C29.4629 73.5608 28.3557 72.4601 28.3557 71.1024C28.3557 69.7447 29.4498 68.644 30.8075 68.644Z" fill="#828282"/>
<path d="M60.8546 39.8759C60.8546 38.5182 59.7539 37.4175 58.3962 37.4175H34.9316C35.5417 36.9289 36.0501 36.3363 36.4432 35.6753C37.5184 33.8676 37.5944 31.6337 36.763 29.7016L33.0869 21.1596H40.2677V27.3186C40.2677 28.6763 41.3684 29.777 42.7261 29.777C44.0838 29.777 45.1845 28.6763 45.1845 27.3186V21.1047C46.3868 20.8481 47.249 19.7154 47.112 18.439L45.4059 2.5435C45.2718 1.29414 44.2178 0.347168 42.9616 0.347168H18.6743C17.418 0.347168 16.364 1.29414 16.23 2.54317L14.5238 18.4387C14.3678 19.8919 15.5067 21.1595 16.9681 21.1595H28.549L24.873 29.7014C24.0416 31.6334 24.1177 33.8672 25.1928 35.6751C25.586 36.3363 26.0944 36.9288 26.7044 37.4173H3.23965C1.88196 37.4173 0.78125 38.518 0.78125 39.8757C0.78125 40.7394 1.22769 41.4978 1.9013 41.9363H1.88032V58.4217H59.7554V41.9363H59.7344C60.4082 41.4979 60.8546 40.7396 60.8546 39.8759ZM30.8212 53.0299C29.4635 53.0299 28.3563 51.9292 28.3563 50.5715C28.3563 49.2139 29.4504 48.1132 30.8081 48.1132H30.8212C32.1789 48.1132 33.2796 49.2139 33.2796 50.5715C33.2796 51.9292 32.1789 53.0299 30.8212 53.0299Z" fill="#828282"/>
</svg>
