<svg width="128" height="128" viewBox="0 0 128 128" fill="none" xmlns="http://www.w3.org/2000/svg">
<g id="icon/action/offline_pin_24px">
<path id="icon/action/offline_pin_24px_2" fill-rule="evenodd" clip-rule="evenodd" d="M10.667 63.9998C10.667 34.6665 34.667 10.6665 64.0003 10.6665C93.3337 10.6665 117.334 34.6665 117.334 63.9998C117.334 93.3332 93.3337 117.333 64.0003 117.333C34.667 117.333 10.667 93.3332 10.667 63.9998ZM21.3333 63.9995C21.3333 87.5195 40.48 106.666 64 106.666C87.52 106.666 106.667 87.5195 106.667 63.9995C106.667 40.4795 87.52 21.3328 64 21.3328C40.48 21.3328 21.3333 40.4795 21.3333 63.9995ZM90.6667 79.9995V90.6662H37.3333V79.9995H90.6667ZM44.8 49.6016L54.9333 59.7349L83.2 31.4683L90.6667 38.9349L54.9333 74.6683L37.3333 57.0683L44.8 49.6016Z" fill="#6FCF97"/>
</g>
</svg>
