<svg width="83" height="84" viewBox="0 0 83 84" fill="none" xmlns="http://www.w3.org/2000/svg">
<g clip-path="url(#clip0)">
<path d="M75.1618 6.62102H44.224V3.52725C44.224 2.06629 43.1068 0.949097 41.6458 0.949097C40.1849 0.949097 39.0677 2.06629 39.0677 3.52725V6.62102H8.12991C6.66896 6.62102 5.55176 7.73822 5.55176 9.19917V52.4261H77.7399V9.19917C77.7399 7.73822 76.6227 6.62102 75.1618 6.62102Z" fill="#828282"/>
<path d="M80.3191 56.723H2.97463C1.59962 56.723 0.396484 57.9262 0.396484 59.3012C0.396484 60.7621 1.51368 61.8793 2.97463 61.8793H36.4046L21.1935 77.9498C20.2482 78.981 20.2482 80.6139 21.2795 81.5592C22.3107 82.5045 23.9436 82.5045 24.8889 81.4733L39.0687 66.52V80.8717C39.0687 82.3326 40.1859 83.4498 41.6469 83.4498C43.1078 83.4498 44.225 82.3326 44.225 80.8717V66.52L58.4048 81.4733C59.3501 82.5045 60.983 82.5905 62.0142 81.5592C63.0455 80.6139 63.1314 78.981 62.1002 77.9498L46.8891 61.8793H80.3191C81.78 61.8793 82.8972 60.7621 82.8972 59.3012C82.8972 57.8402 81.78 56.723 80.3191 56.723Z" fill="#828282"/>
</g>
<defs>
<clipPath id="clip0">
<rect width="82.5007" height="82.5007" fill="white" transform="translate(0.396484 0.949097)"/>
</clipPath>
</defs>
</svg>
