<svg width="130" height="76" viewBox="0 0 130 76" fill="none" xmlns="http://www.w3.org/2000/svg">
<path d="M121.631 35.7704C121.224 35.6853 120.839 35.6052 120.497 35.5167C116.62 34.5135 114.85 33.9637 113.542 31.4503L108.585 21.467C106.992 18.4076 102.879 15.9185 99.4165 15.9185H90.5925V4.39024C90.5925 2.32034 88.8997 0.636169 86.8186 0.636169L25.3596 0.697573C23.3347 0.697573 21.8077 2.29857 21.8077 4.42178V7.8292H6.06348C2.81225 7.82948 0.166992 10.461 0.166992 13.6959C0.166992 16.9308 2.81225 19.5623 6.06348 19.5623H21.8074V25.185H11.4993C8.24809 25.185 5.60283 27.8168 5.60283 31.0514C5.60283 34.2861 8.24809 36.9178 11.4993 36.9178H21.8074V42.5406H16.9352C13.6839 42.5406 11.0387 45.1723 11.0387 48.407C11.0387 51.6416 13.6839 54.2734 16.9352 54.2734H21.8074V60.1543C21.8074 62.2242 23.5002 63.9084 25.5807 63.9084H31.9738C32.9694 70.6973 38.8589 75.9281 45.9553 75.9281C53.0522 75.9281 58.942 70.6973 59.9379 63.9084H85.8109C85.9453 63.9084 86.083 63.8994 86.2205 63.8905C87.2086 70.688 93.1017 75.9281 100.204 75.9281C107.301 75.9281 113.191 70.6973 114.187 63.9084H123.37C126.984 63.9084 129.925 60.9827 129.925 57.3866V46.3203C129.925 37.5017 124.934 36.4598 121.631 35.7704ZM100.204 56.7592C103.038 56.7592 105.343 59.0518 105.343 61.87C105.343 64.6882 103.038 66.9809 100.204 66.9809C97.3719 66.9809 95.0675 64.6882 95.0675 61.87C95.0675 59.0518 97.3719 56.7592 100.204 56.7592ZM90.5925 34.9755V21.3631H97.3357C99.9273 21.3631 103.124 23.2979 104.311 25.5761L108.722 34.46C108.815 34.6397 108.912 34.8111 109.013 34.9752H90.5925V34.9755ZM51.094 61.8697C51.094 64.6877 48.7888 66.9806 45.9553 66.9806C43.1229 66.9806 40.8188 64.6879 40.8188 61.8697C40.8188 59.0515 43.1229 56.7589 45.9553 56.7589C48.7888 56.7592 51.094 59.0518 51.094 61.8697Z" fill="#828282"/>
</svg>
