<svg width="128" height="128" viewBox="0 0 128 128" fill="none" xmlns="http://www.w3.org/2000/svg">
<path fill-rule="evenodd" clip-rule="evenodd" d="M63.9993 10.6655C34.506 10.6655 10.666 34.5055 10.666 63.9989C10.666 93.4922 34.506 117.332 63.9993 117.332C93.4927 117.332 117.333 93.4922 117.333 63.9989C117.333 34.5055 93.4927 10.6655 63.9993 10.6655ZM77.815 42.6655L64.0017 56.4788L50.1883 42.6655L42.6683 50.1855L56.4817 63.9988L42.6683 77.8121L50.1883 85.3321L64.0017 71.5188L77.815 85.3321L85.335 77.8121L71.5217 63.9988L85.335 50.1855L77.815 42.6655ZM21.3313 63.998C21.3313 87.518 40.478 106.665 63.998 106.665C87.518 106.665 106.665 87.518 106.665 63.998C106.665 40.478 87.518 21.3313 63.998 21.3313C40.478 21.3313 21.3313 40.478 21.3313 63.998Z" fill="#EB5757"/>
</svg>
